<?xml version="1.0" encoding="utf-8"?>
<svg xmlns="http://www.w3.org/2000/svg" height="512pt" version="1.1" viewBox="0 0 512 512" width="512pt">
<path d="M 0.00 0.00 L 512.00 0.00 L 512.00 512.00 L 0.00 512.00 L 0.00 0.00 Z" fill="#151b38" opacity="1.00" stroke="#151b38" stroke-width="0.25"/>
<path d="M 224.86 88.42 C 243.35 84.73 262.53 84.25 281.15 87.30 C 331.53 95.24 376.44 129.70 398.41 175.54 C 402.20 183.35 405.55 191.41 407.78 199.82 C 394.38 195.58 380.77 191.98 367.53 187.21 C 362.97 185.41 358.21 183.77 354.37 180.61 C 351.09 178.26 348.44 175.11 344.97 173.01 C 337.89 169.20 328.53 169.99 322.43 175.35 C 316.58 179.99 315.09 187.68 311.06 193.64 C 307.22 184.66 303.00 175.81 299.30 166.78 C 300.58 163.21 302.88 159.97 303.15 156.08 C 304.23 148.83 300.71 141.94 295.97 136.72 C 300.74 123.98 299.48 109.85 295.86 96.99 C 286.03 104.65 277.19 114.13 271.86 125.50 C 262.11 123.24 251.85 123.09 242.11 125.50 C 237.32 114.07 228.49 104.74 218.83 97.21 C 214.97 109.88 213.78 123.81 217.89 136.57 C 213.23 141.49 209.67 147.95 210.24 154.93 C 210.17 159.02 212.48 162.49 213.91 166.15 C 213.94 167.90 212.96 169.46 212.33 171.04 C 208.71 178.71 205.46 186.53 201.92 194.24 C 196.78 188.58 195.90 180.11 189.74 175.26 C 183.76 170.08 174.70 169.27 167.70 172.80 C 161.91 176.22 157.59 181.83 151.22 184.34 C 135.75 190.86 119.33 194.64 103.43 199.91 C 110.93 175.09 124.51 152.15 142.57 133.56 C 164.72 110.80 193.68 94.67 224.86 88.42 Z" fill="#f3f6fb" opacity="1.00" stroke="#f3f6fb" stroke-width="0.25"/>
<path d="M 221.62 105.78 C 226.87 110.14 231.14 115.53 235.01 121.11 C 238.00 125.42 239.17 130.60 241.17 135.37 C 242.15 133.75 243.02 132.05 243.90 130.37 C 252.52 128.66 261.48 128.74 270.13 130.23 C 270.97 132.15 271.86 134.04 272.94 135.83 C 275.18 131.77 275.60 126.98 278.00 122.99 C 281.89 116.44 286.61 110.21 292.88 105.77 C 294.24 113.04 294.65 120.54 293.63 127.89 C 293.12 131.81 291.11 135.30 290.13 139.10 C 291.63 142.85 295.16 145.49 296.32 149.43 C 297.14 153.28 296.84 157.50 294.91 160.99 C 291.20 168.12 284.05 172.89 276.55 175.29 C 268.26 177.67 259.60 179.24 250.96 178.49 C 242.70 177.61 234.73 174.91 227.30 171.24 L 227.52 170.60 C 227.69 170.10 228.02 169.10 228.19 168.60 C 227.36 168.49 225.71 168.27 224.89 168.15 C 223.23 165.35 221.53 162.58 219.99 159.71 L 219.48 159.59 C 219.81 155.10 218.60 150.22 220.79 146.05 C 222.26 142.83 224.69 140.23 226.86 137.49 C 226.08 138.15 225.31 138.83 224.55 139.52 C 218.73 129.28 219.38 116.94 221.62 105.78 Z" fill="#2b265c" opacity="1.00" stroke="#2b265c" stroke-width="0.25"/>
<path d="M 225.05 113.21 C 231.41 118.47 234.92 126.88 235.37 135.02 C 232.61 135.89 229.94 137.00 227.28 138.15 C 226.77 133.77 229.53 130.16 230.62 126.14 C 229.56 121.54 226.57 117.67 225.05 113.21 Z" fill="#151b38" opacity="1.00" stroke="#151b38" stroke-width="0.25"/>
<path d="M 278.52 136.23 C 278.81 127.97 282.65 119.95 288.50 114.18 C 287.23 118.25 284.88 121.92 283.88 126.07 C 284.70 130.43 287.44 134.25 288.17 138.70 C 285.78 137.62 283.52 136.27 281.43 134.69 C 280.46 135.20 279.48 135.71 278.52 136.23 Z" fill="#151b38" opacity="1.00" stroke="#151b38" stroke-width="0.25"/>
<path d="M 224.55 139.52 C 225.31 138.83 226.08 138.15 226.86 137.49 C 224.69 140.23 222.26 142.83 220.79 146.05 C 218.60 150.22 219.81 155.10 219.48 159.59 L 219.99 159.71 C 221.53 162.58 223.23 165.35 224.89 168.15 C 225.71 168.27 227.36 168.49 228.19 168.60 C 228.02 169.10 227.69 170.10 227.52 170.60 C 227.25 170.61 226.70 170.62 226.43 170.63 C 224.09 168.13 222.22 165.23 220.08 162.55 L 219.32 162.41 C 219.43 161.93 219.64 160.98 219.75 160.50 L 218.60 160.58 C 217.40 157.22 217.26 153.66 217.50 150.13 C 217.80 149.45 218.39 148.08 218.68 147.40 L 218.88 147.18 C 220.46 144.42 222.09 141.60 224.55 139.52 Z" fill="#f3f6fb" opacity="1.00" stroke="#f3f6fb" stroke-width="0.25"/>
<path d="M 227.56 142.54 C 230.83 142.98 234.09 143.47 237.34 143.99 L 236.70 145.74 C 235.54 145.61 234.38 145.50 233.22 145.39 C 233.55 147.92 234.20 150.39 235.20 152.73 C 235.35 151.71 235.63 149.66 235.77 148.64 C 236.48 147.72 237.19 146.80 237.92 145.89 L 238.73 144.86 C 241.24 147.15 243.13 149.99 244.48 153.10 C 240.12 154.63 234.69 156.83 230.59 153.49 C 226.87 151.11 227.61 146.31 227.56 142.54 Z" fill="#151b38" opacity="1.00" stroke="#151b38" stroke-width="0.25"/>
<path d="M 271.05 143.94 C 273.96 143.34 277.53 142.03 280.21 143.90 C 280.34 148.57 278.01 154.11 273.03 155.19 C 269.71 155.33 266.49 154.40 263.27 153.77 C 264.34 149.61 266.62 145.23 271.05 143.94 Z" fill="#151b38" opacity="1.00" stroke="#151b38" stroke-width="0.25"/>
<path d="M 233.22 145.39 C 234.38 145.50 235.54 145.61 236.70 145.74 C 237.00 145.78 237.61 145.85 237.92 145.89 C 237.19 146.80 236.48 147.72 235.77 148.64 C 235.63 149.66 235.35 151.71 235.20 152.73 C 234.20 150.39 233.55 147.92 233.22 145.39 Z" fill="#f3f6fb" opacity="1.00" stroke="#f3f6fb" stroke-width="0.25"/>
<path d="M 270.43 146.04 C 271.38 145.65 272.33 145.30 273.30 144.96 C 273.67 146.03 274.05 147.10 274.44 148.16 C 273.69 149.48 273.09 150.95 271.93 151.97 C 270.32 151.83 268.75 151.42 267.21 151.00 C 267.48 149.89 267.76 148.78 268.05 147.67 C 268.76 148.73 269.44 149.80 270.20 150.83 C 270.55 150.95 271.25 151.19 271.60 151.31 C 271.32 149.52 270.68 147.82 270.43 146.04 Z" fill="#f3f6fb" opacity="1.00" stroke="#f3f6fb" stroke-width="0.25"/>
<path d="M 238.81 147.61 C 239.42 148.45 240.03 149.29 240.65 150.13 C 239.51 150.82 238.38 151.50 237.25 152.16 C 237.75 150.64 238.27 149.12 238.81 147.61 Z" fill="#f3f6fb" opacity="1.00" stroke="#f3f6fb" stroke-width="0.25"/>
<path d="M 244.29 158.90 C 245.94 154.66 251.42 156.91 254.22 158.72 C 252.23 160.52 250.16 162.26 248.06 163.94 C 246.75 162.30 245.39 160.69 244.29 158.90 Z" fill="#151b38" opacity="1.00" stroke="#151b38" stroke-width="0.25"/>
<path d="M 171.83 176.63 C 178.84 174.26 186.97 178.52 189.83 185.16 C 192.04 190.05 194.15 195.14 197.98 199.02 C 202.03 203.56 207.87 205.67 213.29 208.05 C 202.63 212.67 190.20 207.32 183.99 198.06 C 181.72 195.41 179.48 190.16 175.17 192.02 C 173.15 194.64 172.09 197.83 170.72 200.82 C 164.89 213.57 160.16 226.78 154.83 239.74 C 149.35 254.66 143.86 269.61 140.03 285.06 C 134.29 302.06 131.30 320.06 132.24 338.02 C 132.26 342.95 133.79 348.42 130.66 352.76 C 127.32 342.53 127.59 331.59 128.09 320.97 C 130.27 297.94 137.52 275.80 145.24 254.12 C 150.44 239.90 156.11 225.85 162.00 211.91 C 163.67 208.23 165.32 204.53 166.51 200.65 C 162.12 203.45 158.33 207.03 154.15 210.11 C 145.88 216.18 137.74 222.42 129.57 228.62 C 116.52 239.28 104.33 251.28 95.40 265.67 C 92.50 262.67 89.21 259.61 84.87 259.08 C 74.88 257.39 65.53 262.42 56.97 266.89 C 61.23 261.56 65.51 256.19 70.71 251.74 C 87.17 237.14 107.43 228.00 126.79 217.99 C 139.14 212.31 151.23 206.02 162.72 198.75 C 165.65 197.02 167.98 194.48 169.49 191.43 C 165.58 191.86 161.96 193.43 158.49 195.18 C 130.51 207.52 99.75 210.30 69.98 215.73 C 73.49 214.28 77.04 212.92 80.67 211.81 C 92.14 208.36 103.51 204.55 115.03 201.24 C 120.72 199.64 126.43 198.10 132.00 196.08 C 141.47 192.46 151.40 189.61 159.94 183.95 C 163.83 181.41 167.28 178.00 171.83 176.63 Z" fill="#2b265c" opacity="1.00" stroke="#2b265c" stroke-width="0.25"/>
<path d="M 324.97 180.90 C 328.49 177.00 334.26 174.91 339.38 176.58 C 344.66 178.10 348.54 182.19 353.07 185.06 C 360.58 189.94 369.30 192.31 377.58 195.49 C 399.30 202.33 421.30 208.33 442.83 215.79 C 421.15 212.29 399.29 209.45 378.07 203.65 C 369.81 201.35 361.46 199.12 353.79 195.21 C 350.24 193.38 346.42 192.10 342.45 191.56 C 346.14 197.68 352.80 200.83 358.67 204.42 C 372.74 212.75 387.76 219.26 402.21 226.89 C 413.67 232.18 424.33 239.09 434.61 246.39 C 441.84 252.68 449.06 259.16 454.73 266.96 C 446.30 262.37 437.02 257.33 427.07 259.05 C 422.71 259.59 419.35 262.61 416.40 265.61 C 406.53 250.20 393.32 237.27 378.91 226.12 C 369.95 219.43 360.95 212.76 352.28 205.69 C 350.25 204.05 348.03 202.66 345.78 201.35 C 350.19 213.61 356.00 225.32 360.42 237.58 C 367.82 256.26 374.29 275.36 378.97 294.91 C 381.91 307.05 383.60 319.55 383.11 332.06 C 382.83 338.81 382.68 345.71 380.57 352.19 C 378.95 351.78 378.72 349.98 378.53 348.59 C 378.16 344.05 378.98 339.52 379.09 334.99 C 379.47 323.91 378.48 312.78 375.97 301.98 C 373.02 289.20 369.70 276.51 365.84 263.98 C 358.56 242.36 350.09 221.17 341.04 200.23 C 339.39 196.45 338.14 191.32 333.11 191.13 C 329.11 197.80 323.96 204.11 316.79 207.51 C 311.14 210.47 304.36 210.40 298.47 208.19 C 304.69 205.35 311.50 202.69 315.68 196.96 C 319.63 192.11 320.88 185.65 324.97 180.90 Z" fill="#2b265c" opacity="1.00" stroke="#2b265c" stroke-width="0.25"/>
<path d="M 238.36 204.69 C 245.54 203.92 252.80 204.62 260.01 204.40 C 265.55 204.56 271.13 203.90 276.63 204.70 C 278.44 207.06 279.14 210.04 280.20 212.78 C 282.47 219.30 285.76 225.40 287.82 231.99 C 289.56 237.56 293.53 242.08 295.15 247.70 C 296.89 253.14 298.93 258.49 301.38 263.66 C 304.94 271.52 307.81 279.68 311.68 287.40 C 315.79 296.10 318.11 305.57 322.84 313.99 C 326.46 320.38 327.28 327.87 330.74 334.32 C 332.48 337.63 334.10 340.99 335.41 344.49 C 338.23 352.04 342.38 359.07 344.22 366.97 C 336.48 367.41 328.74 366.59 321.00 366.93 C 315.29 367.17 309.59 366.64 303.89 366.42 C 304.00 362.69 305.92 359.49 307.05 356.05 C 303.61 346.23 299.82 336.46 295.06 327.19 C 293.34 323.75 292.41 319.94 290.41 316.64 C 289.10 314.45 286.23 314.68 284.03 314.51 C 267.36 314.56 250.68 314.65 234.01 314.50 C 230.81 314.46 227.66 315.04 224.57 315.81 C 222.45 322.06 219.30 327.90 217.11 334.13 C 214.78 340.60 211.68 346.76 209.14 353.14 C 206.80 357.85 210.70 362.39 212.19 366.72 C 206.16 367.72 200.03 367.65 193.94 367.55 C 185.69 367.37 177.39 368.07 169.18 366.93 C 171.74 357.84 177.06 349.90 180.11 341.00 C 182.75 333.49 186.44 326.41 189.08 318.91 C 193.98 307.00 199.65 295.42 204.46 283.49 C 206.89 275.10 211.73 267.74 214.50 259.49 C 218.55 250.69 221.93 241.60 225.99 232.81 C 231.00 223.84 233.00 213.48 238.36 204.69 Z" fill="#2b265c" opacity="1.00" stroke="#2b265c" stroke-width="0.25"/>
<path d="M 340.28 212.25 C 340.71 212.37 341.57 212.63 342.01 212.76 C 345.44 223.06 350.66 232.65 354.31 242.87 C 360.81 259.39 366.65 276.99 364.66 295.00 C 364.33 300.23 362.78 305.29 360.65 310.05 C 357.47 300.80 352.70 291.32 344.13 285.98 C 340.79 283.62 336.82 282.47 332.86 281.70 C 335.76 277.40 338.47 272.88 339.82 267.82 C 343.01 257.53 342.36 246.61 341.69 236.00 C 341.23 228.07 338.80 220.21 340.28 212.25 Z" fill="#2b265c" opacity="1.00" stroke="#2b265c" stroke-width="0.25"/>
<path d="M 167.78 218.89 C 168.79 216.75 169.36 214.03 171.59 212.79 C 172.64 216.43 172.49 220.25 171.91 223.96 C 170.40 233.90 169.72 243.98 170.09 254.04 C 170.52 264.10 173.59 274.37 180.59 281.86 C 173.29 282.61 166.21 285.74 161.33 291.30 C 156.39 296.69 153.59 303.53 150.63 310.09 C 146.87 300.22 145.93 289.44 147.20 278.99 C 150.06 257.80 159.63 238.42 167.78 218.89 Z" fill="#2b265c" opacity="1.00" stroke="#2b265c" stroke-width="0.25"/>
<path d="M 429.72 226.66 C 430.81 223.01 433.89 220.53 437.11 218.78 C 435.49 221.26 433.44 223.50 432.27 226.25 C 431.48 229.29 431.62 232.47 431.36 235.58 C 430.28 232.77 428.64 229.72 429.72 226.66 Z" fill="#2b265c" opacity="1.00" stroke="#2b265c" stroke-width="0.25"/>
<path d="M 76.04 219.53 C 78.97 221.38 81.75 223.89 82.54 227.42 C 83.30 229.93 81.61 232.21 80.68 234.42 C 80.65 229.05 78.94 224.00 76.04 219.53 Z" fill="#2b265c" opacity="1.00" stroke="#2b265c" stroke-width="0.25"/>
<path d="M 139.17 232.23 C 141.62 230.87 144.40 230.40 147.11 229.89 C 145.65 237.51 142.27 244.55 139.78 251.86 C 132.03 272.26 127.21 293.63 123.20 315.04 C 120.28 310.71 116.78 306.38 111.72 304.52 C 105.28 302.22 98.09 302.62 91.62 304.61 C 85.95 306.32 81.28 310.07 76.34 313.18 C 85.73 289.50 98.85 267.03 116.98 248.97 C 123.72 242.60 131.00 236.68 139.17 232.23 Z" fill="#2b265c" opacity="1.00" stroke="#2b265c" stroke-width="0.25"/>
<path d="M 257.37 229.57 C 263.31 240.16 265.38 252.38 271.08 263.09 C 274.46 269.50 277.74 276.13 278.80 283.38 C 264.64 283.63 250.47 283.57 236.31 283.38 C 238.41 274.88 242.98 267.31 245.90 259.10 C 249.42 249.14 253.60 239.43 257.37 229.57 Z" fill="#151b38" opacity="1.00" stroke="#151b38" stroke-width="0.25"/>
<path d="M 364.62 230.42 C 368.65 230.60 372.65 231.63 375.97 234.00 C 394.02 245.65 408.54 262.29 419.12 280.88 C 425.65 290.56 429.63 301.60 434.12 312.29 C 428.28 309.12 422.70 305.14 416.10 303.73 C 409.26 302.29 401.52 302.52 395.66 306.75 C 392.18 308.88 390.14 312.49 388.23 315.96 C 386.56 309.00 385.85 301.87 384.33 294.89 C 381.00 278.76 376.22 262.96 370.47 247.54 C 368.35 241.89 365.83 236.36 364.62 230.42 Z" fill="#2b265c" opacity="1.00" stroke="#2b265c" stroke-width="0.25"/>
</svg>